<?xml version="1.0" encoding="UTF-8"?>
<svg id="Layer_1" data-name="Layer 1" xmlns="http://www.w3.org/2000/svg" xmlns:xlink="http://www.w3.org/1999/xlink" viewBox="0 0 805 805">
  <defs>
    <style>
      .cls-1 {
        fill: url(#radial-gradient);
      }

      .cls-2 {
        fill: #9b59b6;
      }

      .cls-3 {
        fill: #2ecc71;
      }

      .cls-4 {
        stroke: #95a5a6;
        stroke-width: 2.5px;
      }

      .cls-4, .cls-5, .cls-6 {
        fill: none;
      }

      .cls-7 {
        fill: #fff;
      }

      .cls-5 {
        stroke: #d0d3d4;
        stroke-width: 5px;
      }

      .cls-8 {
        fill: #f1c40f;
      }

      .cls-9 {
        opacity: .7;
      }

      .cls-10 {
        fill: #e74c3c;
      }

      .cls-6 {
        isolation: isolate;
        opacity: .03;
      }

      .cls-11 {
        fill: #3498db;
      }
    </style>
    <radialGradient id="radial-gradient" cx="202.61" cy="442.59" fx="202.61" fy="442.59" r=".5" gradientTransform="translate(-161685.5 354474.5) scale(800 -800)" gradientUnits="userSpaceOnUse">
      <stop offset="0" stop-color="#f5f5f5"/>
      <stop offset=".8" stop-color="#ecf0f1"/>
      <stop offset="1" stop-color="#bdc3c7"/>
    </radialGradient>
  </defs>
  <g>
    <circle class="cls-1" cx="402.5" cy="402.5" r="400"/>
    <circle class="cls-5" cx="402.5" cy="402.5" r="400"/>
  </g>
  <g class="cls-9">
    <line class="cls-4" x1="402.5" y1="2.5" x2="402.5" y2="802.5"/>
    <line class="cls-4" x1="2.5" y1="402.5" x2="802.5" y2="402.5"/>
    <line class="cls-4" x1="119.5" y1="119.5" x2="685.5" y2="685.5"/>
    <line class="cls-4" x1="685.5" y1="119.5" x2="119.5" y2="685.5"/>
    <circle class="cls-4" cx="402.5" cy="402.5" r="300"/>
    <circle class="cls-4" cx="402.5" cy="402.5" r="200"/>
    <circle class="cls-4" cx="402.5" cy="402.5" r="100"/>
  </g>
  <g>
    <rect class="cls-10" x="204.18" y="452.5" width="120" height="120" rx="18" ry="18" transform="translate(-299.23 635.03) rotate(-75)"/>
    <circle class="cls-7" cx="246.5" cy="481.88" r="15"/>
    <circle class="cls-7" cx="264.18" cy="512.5" r="15"/>
    <circle class="cls-7" cx="281.86" cy="543.12" r="15"/>
  </g>
  <g>
    <rect class="cls-11" x="481.71" y="448.96" width="120" height="120" rx="18" ry="18" transform="translate(-141.41 215.97) rotate(-20)"/>
    <circle class="cls-7" cx="509.67" cy="494.02" r="15"/>
    <circle class="cls-7" cx="556.65" cy="476.92" r="15"/>
    <circle class="cls-7" cx="541.71" cy="508.96" r="15"/>
    <circle class="cls-7" cx="526.77" cy="541" r="15"/>
    <circle class="cls-7" cx="573.75" cy="523.9" r="15"/>
  </g>
  <circle class="cls-2" cx="261" cy="261" r="30"/>
  <circle class="cls-3" cx="555.44" cy="254.5" r="30"/>
  <circle class="cls-8" cx="400.5" cy="201" r="30"/>
  <circle class="cls-6" cx="402.5" cy="402.5" r="400"/>
</svg>