<svg xmlns="http://www.w3.org/2000/svg" viewBox="0 0 1024 1024">
  <!-- Back Layer (furthest back) - 2x dimensions -->
  
  <!-- Background gradient representing a game table surface -->
  <linearGradient id="tableGradient" x1="0%" y1="0%" x2="100%" y2="100%">
    <stop offset="0%" stop-color="#34495e" />
    <stop offset="50%" stop-color="#2c3e50" />
    <stop offset="100%" stop-color="#1a2530" />
  </linearGradient>
  
  <!-- Main background with rounded corners -->
  <rect x="0" y="0" width="1024" height="1024" rx="220" ry="220" fill="url(#tableGradient)" />
  
  <!-- Subtle wood grain texture pattern -->
  <pattern id="woodPattern" width="100" height="100" patternUnits="userSpaceOnUse">
    <path d="M0,50 Q25,45 50,50 Q75,55 100,50" stroke="#283747" stroke-width="0.5" fill="none" opacity="0.1" />
    <path d="M0,70 Q25,65 50,70 Q75,75 100,70" stroke="#283747" stroke-width="0.5" fill="none" opacity="0.1" />
    <path d="M0,90 Q25,85 50,90 Q75,95 100,90" stroke="#283747" stroke-width="0.5" fill="none" opacity="0.1" />
    <path d="M0,10 Q25,15 50,10 Q75,5 100,10" stroke="#283747" stroke-width="0.5" fill="none" opacity="0.1" />
    <path d="M0,30 Q25,35 50,30 Q75,25 100,30" stroke="#283747" stroke-width="0.5" fill="none" opacity="0.1" />
  </pattern>
  <rect x="0" y="0" width="1024" height="1024" rx="220" ry="220" fill="url(#woodPattern)" />
  
  <!-- Ambient highlighting for the edges -->
  <linearGradient id="edgeHighlight" x1="0%" y1="0%" x2="100%" y2="100%">
    <stop offset="0%" stop-color="white" stop-opacity="0.1" />
    <stop offset="100%" stop-color="white" stop-opacity="0" />
  </linearGradient>
  <rect x="40" y="40" width="944" height="944" rx="190" ry="190" stroke="url(#edgeHighlight)" stroke-width="1" fill="none" />
  
  <!-- Subtle glow effect for depth -->
  <filter id="glow">
    <feGaussianBlur stdDeviation="20" result="blur" />
    <feComposite in="blur" operator="over" />
  </filter>
  <rect x="100" y="100" width="824" height="824" rx="160" ry="160" fill="#2c3e50" filter="url(#glow)" opacity="0.3" />
  
  <!-- Board grid lines (faint in the back) -->
  <g stroke="#46637f" stroke-width="1" opacity="0.15">
    <line x1="200" y1="100" x2="200" y2="924" />
    <line x1="400" y1="100" x2="400" y2="924" />
    <line x1="600" y1="100" x2="600" y2="924" />
    <line x1="800" y1="100" x2="800" y2="924" />
    
    <line x1="100" y1="200" x2="924" y2="200" />
    <line x1="100" y1="400" x2="924" y2="400" />
    <line x1="100" y1="600" x2="924" y2="600" />
    <line x1="100" y1="800" x2="924" y2="800" />
  </g>
</svg>
